<svg class="icon fish" viewBox="0 0 98 98" fill="none" xmlns="http://www.w3.org/2000/svg">
    <path d="M96.1177 56.0922L97.1238 53.4776C100.346 43.3217 94.2792 37.2313 85.485 27.6024C78.3455 19.7898 69.6177 11.5492 65.3738 7.58287C54.8943 -2.2286 38.3121 -6.59679 59.2353 20.3848C85.6689 54.464 60.1545 77.3226 60.1545 77.3226C37.0966 105.781 55.5021 105.056 83.3758 73.9564C89.9383 66.6448 93.9881 60.9092 96.1177 56.0922Z"
          fill="#FF4A11"/>
    <path d="M37.5767 30.3371C53.0712 52.6843 38.1384 67.6625 38.1384 67.6625C24.6561 86.3095 35.4368 85.8398 51.7382 65.4653C64.955 48.9528 60.8184 44.7151 52.9537 35.0811C48.7711 29.9562 43.6539 24.5546 41.1668 21.9504C35.0232 15.5155 25.32 12.6452 37.5767 30.3371Z"
          fill="#FF4A11"/>
    <path d="M7.19027 39.8563C26.1371 50.983 7.70097 58.5294 7.70097 58.5294C-8.97325 67.9078 4.28441 67.6259 24.4365 57.3761C40.7685 49.0676 35.6973 46.9644 26.0707 42.1683C20.9535 39.6215 14.6924 36.939 11.6486 35.6447C4.12609 32.4455 -7.79865 31.0521 7.19027 39.8563Z"
          fill="#FF4A11"/>
</svg>
